<?xml version="1.0" encoding="utf-8"?>
<!-- Generator: Adobe Illustrator 24.2.3, SVG Export Plug-In . SVG Version: 6.00 Build 0)  -->
<svg version="1.1" id="Layer_1" xmlns="http://www.w3.org/2000/svg" xmlns:xlink="http://www.w3.org/1999/xlink" x="0px" y="0px"
	 viewBox="0 0 1366 768" style="enable-background:new 0 0 1366 768;" xml:space="preserve">
<style type="text/css">
	.st0{fill:none;stroke:#000000;stroke-miterlimit:10;}
	.st1{fill:#FFFFFF;stroke:#000000;stroke-miterlimit:10;}
</style>
<g>
	<path class="st0" d="M692.72,432.35c0.07-2.01,0.02-3.73-0.16-5.15c-0.17-1.42-0.36-2.55-0.57-3.38l-0.31-1.35
		c-0.07,0.56-0.14,1.2-0.21,1.92c-0.07,0.73-0.1,1.58-0.1,2.55c-0.14,3.47-0.24,6.76-0.31,9.88c-0.07,3.12-0.1,6.14-0.1,9.05
		c0.69-2.63,1.16-5.11,1.4-7.44C692.6,436.12,692.72,434.09,692.72,432.35z"/>
	<path class="st0" d="M886.33,437.14l-2.39,0.31c-0.21,3.89-0.31,7.49-0.31,10.82c0.65-1.8,1.19-3.64,1.62-5.51
		C885.68,440.88,886.04,439.01,886.33,437.14z"/>
	<path class="st0" d="M886.8,432.41c0.03-0.17,0.05-0.36,0.05-0.57c0.14-2.71,0.03-4.94-0.31-6.71c-0.35-1.77-0.69-3.07-1.04-3.9
		c-0.16,0.49-0.31,1.16-0.47,2.03c-0.16,0.87-0.31,2.03-0.47,3.49c-0.14,1.18-0.23,2.29-0.26,3.33c-0.04,1.04-0.09,2.08-0.16,3.12
		l2.6-0.31C886.75,432.74,886.76,432.58,886.8,432.41z"/>
	<path class="st0" d="M696.88,457.66c-0.42-0.76-0.88-0.9-1.4-1.21c-0.52-0.31-0.99-0.04-1.4-0.04h-0.42c-0.49,0-0.88,0.08-1.2,0.67
		c-0.31,0.59-0.5,1.13-0.57,2.1c-0.21,2.71-0.28,5.14-0.21,7.5c0.07,2.36,0.28,4.5,0.62,6.51c2.91-3.54,4.61-6.63,5.1-9.27
		C697.88,461.28,697.71,459.19,696.88,457.66z"/>
	<path class="st0" d="M592.53,432.35c0.07-2.01,0.02-3.73-0.16-5.15c-0.17-1.42-0.36-2.55-0.57-3.38l-0.31-1.35
		c-0.07,0.56-0.14,1.2-0.21,1.92c-0.07,0.73-0.1,1.58-0.1,2.55c-0.14,3.47-0.24,6.76-0.31,9.88c-0.07,3.12-0.1,6.14-0.1,9.05
		c0.69-2.63,1.16-5.11,1.4-7.44C592.41,436.12,592.53,434.09,592.53,432.35z"/>
	<path class="st0" d="M727.47,445.05c-0.21-0.83-0.59-0.97-1.14-0.42c-0.56,0.49-1.04,1.46-1.46,2.91
		c-0.42,1.46-0.62,3.43-0.62,5.93c0,0.35,0.03,0.59,0.1,0.73c1.46-2.08,2.39-3.9,2.81-5.46
		C727.57,447.18,727.68,445.95,727.47,445.05z"/>
	<path class="st0" d="M859.28,471.89c-1.94,0.62-3.83,1.25-5.67,1.87c-1.84,0.62-3.54,1.32-5.1,2.08c-1.56,0.76-2.95,1.6-4.16,2.5
		c-1.21,0.9-2.13,1.91-2.76,3.02c-0.55,0.9-0.38,1.63,0.52,2.18c0.97,0.56,2.27,0.88,3.9,0.99c1.63,0.1,3.31-0.02,5.05-0.36
		c4.23-0.9,7.11-2.64,8.64-5.2c0.83-1.46,1.21-2.74,1.14-3.85C860.77,474.01,860.25,472.93,859.28,471.89z"/>
	<path class="st0" d="M738.39,471.89c-1.94,0.62-3.83,1.25-5.67,1.87c-1.84,0.62-3.54,1.32-5.1,2.08c-1.56,0.76-2.95,1.6-4.16,2.5
		c-1.21,0.9-2.13,1.91-2.76,3.02c-0.55,0.9-0.38,1.63,0.52,2.18c0.97,0.56,2.27,0.88,3.9,0.99c1.63,0.1,3.31-0.02,5.05-0.36
		c4.23-0.9,7.11-2.64,8.63-5.2c0.83-1.46,1.21-2.74,1.14-3.85C739.88,474.01,739.36,472.93,738.39,471.89z"/>
	<path class="st0" d="M848.05,448.74c0.42-1.56,0.52-2.79,0.31-3.69c-0.21-0.83-0.59-0.97-1.14-0.42c-0.56,0.49-1.04,1.46-1.46,2.91
		c-0.42,1.46-0.62,3.43-0.62,5.93c0,0.35,0.03,0.59,0.1,0.73C846.69,452.12,847.63,450.3,848.05,448.74z"/>
	<path class="st1" d="M973.96,436.64c-1.79-9.38-2.55-8.61-2.55-8.61c-0.9-1.49-5.2,0.94-8.02,1.13c-2.82,0.19-2.92,1.91-2.92,1.91
		l-0.89,5.3l-8.89,15.95c-3.77-4.48-5.62,1.82-5.62,1.82l-12.57,22.15c-1.82,2.64,0.71,4.14,0.71,4.14
		c-3.6,5.99-3.12,6.46-3.12,6.46c-0.28,1.5,3.6,3.48,3.6,3.48c-2.77,5.27-8.34,1.92-8.34,1.92c-6.63-4.44-1.29-11.65-1.29-11.65
		l14.84-26.2c4.99-10.22-3.31-15.68-3.31-15.68c-5.98-4.04-10.92-0.35-10.92-0.35c-3.12,1.05-12.23,19.22-12.23,19.22
		c-0.16,0.26-0.24,0.5-0.25,0.71c-1.74,3.62-3.58,7.13-5.53,10.52c-2.12,3.68-4.15,6.66-6.09,8.95c-2.01,2.36-3.85,4.11-5.51,5.25
		c-1.66,1.14-3.09,1.54-4.27,1.2c-0.42-0.07-0.9-0.31-1.43-0.73c-0.53-0.42-1.06-1.11-1.58-2.08c-0.53-0.97-1.06-2.27-1.58-3.9
		c-0.53-1.63-1-3.76-1.43-6.4c-0.35-1.8-0.6-3.78-0.74-5.93c-0.14-2.15-0.28-4.44-0.42-6.87c0-0.07,0.03-0.1,0.1-0.1
		c2.25-4.16,3.89-8.08,4.91-11.76c1.02-3.68,1.71-6.97,2.06-9.88l7.91-1.04c0.55-0.07,1.02-0.33,1.4-0.78
		c0.38-0.45,0.54-0.95,0.47-1.51c-0.07-0.55-0.33-1.02-0.78-1.4c-0.45-0.38-0.95-0.54-1.51-0.47l-7.18,0.94
		c0.14-3.33-0.07-6.35-0.64-9.05c-0.56-2.71-1.34-4.68-2.32-5.93c-0.78-0.83-1.5-1.28-2.17-1.35c-0.67-0.07-1.15-0.03-1.43,0.1
		c-0.34,0.14-0.71,0.36-1.11,0.68c-0.41,0.31-0.79,0.83-1.17,1.56c-0.37,0.73-0.71,1.73-1.01,3.02c-0.3,1.28-0.52,2.97-0.66,5.05
		c-0.14,1.25-0.24,2.5-0.31,3.75c-0.07,1.25-0.14,2.46-0.21,3.64l-7.91,0.94c-0.55,0.07-1.02,0.33-1.4,0.78
		c-0.38,0.45-0.54,0.95-0.47,1.51c0.07,0.56,0.3,1.01,0.68,1.35c0.38,0.35,0.85,0.52,1.4,0.52l7.49-0.94
		c-0.31,7.26-0.39,13.72-0.23,19.38c-0.76,1.03-1.81,2.01-3.15,2.93c-1.35,0.94-2.88,1.8-4.58,2.6c-1.7,0.8-3.54,1.54-5.51,2.24
		c-1.98,0.69-3.94,1.35-5.88,1.98c-0.97-0.76-1.98-1.47-3.02-2.13c-1.04-0.66-2.08-1.33-3.12-2.03c-1.32-0.76-2.57-1.54-3.75-2.34
		c-1.18-0.8-2.18-1.65-3.02-2.55c2.36-2.91,3.92-5.76,4.68-8.53c0.76-3.05,0.55-5.48-0.62-7.28c-0.56-0.83-1.27-1.44-2.13-1.82
		c-0.87-0.38-1.79-0.4-2.76-0.05c-1.8,0.56-3.19,1.98-4.16,4.27c-1.04,2.29-1.56,5.24-1.56,8.84c0,1.5,0.37,2.93,1.08,4.3
		c-2.2,5-4.36,9.24-6.49,12.71c-2.15,3.5-4.2,6.31-6.14,8.43c-1.94,2.12-3.75,3.61-5.41,4.47c-1.66,0.87-3.05,1.2-4.16,0.99
		c-2.01-0.35-3.68-1.96-4.99-4.84c-1.32-2.88-2.12-6.71-2.39-11.5c-0.07-0.55-0.3-1-0.68-1.35c-0.38-0.35-0.85-0.52-1.4-0.52
		c-1.25,0-1.94,0.62-2.08,1.87c-0.42,3.75-0.99,6.68-1.72,8.79c-0.73,2.12-1.44,3.66-2.13,4.63c-0.49,0.76-1.13,1.47-1.93,2.13
		c-0.8,0.66-1.68,0.92-2.65,0.78c-0.83-0.07-1.66-0.43-2.5-1.09c-0.83-0.66-1.56-1.54-2.18-2.65c-1.66-2.84-2.32-6.21-1.98-10.09
		c0.21-2.5,0.61-4.72,1.2-6.66c0.59-1.94,1.28-3.59,2.08-4.94c0.8-1.35,1.66-2.38,2.6-3.07c0.94-0.69,1.85-1.07,2.76-1.14
		c1.25-0.14,2.37,0.42,3.38,1.66c1,1.25,1.75,2.98,2.24,5.2c0.14,0.56,0.45,1.01,0.94,1.35c0.48,0.35,1,0.45,1.56,0.31
		c1.25-0.35,1.77-1.18,1.56-2.5c-0.69-3.26-1.91-5.79-3.64-7.59c-1.8-1.94-3.89-2.81-6.24-2.6c-3.19,0.21-5.97,2.08-8.32,5.62
		c-0.09,0.15-0.18,0.3-0.27,0.45c-0.3,0.22-0.52,0.51-0.67,0.9c-2.01,4.58-4.09,8.84-6.24,12.8c-2.15,3.95-4.3,7.04-6.45,9.26
		c-3.75,3.75-6.97,5.31-9.68,4.68c-1.46-0.35-2.62-1.21-3.48-2.6c-0.87-1.39-1.51-2.77-1.92-4.16c-1.6-4.58-2.12-10.75-1.56-18.52
		c0.14-1.39,0.36-2.41,0.68-3.07c0.31-0.66,0.54-1.06,0.68-1.2c0.14,0.14,0.35,0.56,0.62,1.25c0.28,0.69,0.45,1.73,0.52,3.12
		c0,0.56,0.21,1.04,0.62,1.46c0.42,0.42,0.9,0.62,1.46,0.62c0.55,0,1.04-0.21,1.46-0.62c0.42-0.42,0.62-0.9,0.62-1.46
		c-0.07-3.12-0.66-5.32-1.77-6.61c-1.11-1.28-2.25-1.96-3.43-2.03c-1.18,0-2.36,0.61-3.54,1.82c-0.93,0.95-1.55,2.48-1.87,4.56
		c-0.15,0.14-0.29,0.29-0.41,0.49c-0.76,1.04-1.82,2.03-3.17,2.97c-1.35,0.94-2.88,1.8-4.58,2.6c-1.7,0.8-3.54,1.54-5.51,2.24
		c-1.98,0.69-3.94,1.35-5.88,1.98c-0.97-0.76-1.98-1.47-3.02-2.13c-1.04-0.66-2.08-1.33-3.12-2.03c-1.32-0.76-2.57-1.54-3.75-2.34
		c-1.18-0.8-2.18-1.65-3.02-2.55c2.36-2.91,3.92-5.76,4.68-8.53c0.76-3.05,0.55-5.48-0.62-7.28c-0.56-0.83-1.27-1.44-2.13-1.82
		c-0.87-0.38-1.79-0.4-2.76-0.05c-1.8,0.56-3.19,1.98-4.16,4.27c-1.04,2.29-1.56,5.24-1.56,8.84c0,1.5,0.37,2.93,1.08,4.3
		c-1.99,4.52-4.05,8.73-6.18,12.61c-2.15,3.92-4.34,6.99-6.55,9.21c-3.68,3.75-6.87,5.31-9.57,4.68c-1.39-0.35-2.5-1.14-3.33-2.39
		c-0.83-1.25-1.49-2.53-1.98-3.85c4.09-4.3,6.66-8.46,7.7-12.48c1.11-3.88,0.87-7.18-0.73-9.88c-0.76-1.46-1.77-2.57-3.02-3.33
		c-1.25-0.76-2.57-1.07-3.95-0.94c1.32-3.75,2.2-7.21,2.65-10.4c0.45-3.19,0.68-5.96,0.68-8.32c0.14-3.54-0.09-6.67-0.68-9.42
		c-0.59-2.74-1.37-4.66-2.34-5.77c-0.97-1.11-2.08-1.42-3.33-0.94c-0.83,0.35-1.44,0.88-1.82,1.61c-0.38,0.73-0.64,1.44-0.78,2.13
		c-0.21,0.76-0.38,1.7-0.52,2.81c-0.14,1.11-0.21,2.36-0.21,3.75c-0.32,11.84-0.51,22.05-0.59,30.63c-0.01,0.02-0.02,0.04-0.03,0.06
		c-2.5,4.99-4.93,9.45-7.28,13.37c-2.36,3.92-4.65,6.99-6.87,9.21c-1.18,1.18-2.55,2.27-4.11,3.28c-1.56,1.01-3.1,1.34-4.63,0.99
		c-1.32-0.28-2.41-1.06-3.28-2.34c-0.87-1.28-1.58-2.58-2.13-3.9c-0.56-1.39-1.02-3.07-1.4-5.05c-0.38-1.98-0.69-4.06-0.94-6.24
		c-0.24-2.18-0.43-4.33-0.57-6.45c-0.14-2.11-0.31-4.04-0.52-5.77c-0.07-0.55-0.3-1-0.68-1.35c-0.38-0.35-0.85-0.52-1.4-0.52
		c-0.56,0-1.02,0.17-1.4,0.52c-0.38,0.35-0.57,0.8-0.57,1.35c-0.42,5.13-1.02,9.5-1.82,13.11c-0.8,3.61-1.65,6.55-2.55,8.84
		c-0.9,2.29-1.8,4.02-2.71,5.2c-0.9,1.18-1.7,1.91-2.39,2.18c-0.69,0.28-1.28,0.24-1.77-0.1c-0.35-0.28-0.85-0.92-1.51-1.92
		c-0.66-1-1.2-2.79-1.61-5.36c-0.42-2.22-0.62-4.94-0.62-8.17c0-3.23,0.21-6.47,0.62-9.73c0.07-0.55-0.07-1.06-0.42-1.51
		c-0.05-0.06-0.1-0.11-0.15-0.16c0-0.01-0.01-0.01-0.01-0.02c-0.06-0.07-0.13-0.13-0.2-0.19c-0.14-0.11-0.28-0.22-0.46-0.31
		c-0.56-0.28-1.09-0.33-1.61-0.16c-0.52,0.17-0.92,0.5-1.2,0.99c-2.64,4.93-5.06,9.38-7.28,13.37c-2.22,3.99-4.3,7.06-6.24,9.21
		c-3.12,3.4-5.55,4.96-7.28,4.68c-2.01-0.35-3.85-2.98-5.51-7.91c-0.76-2.5-1.46-5.25-2.08-8.27c-0.62-3.02-1.21-6.09-1.77-9.21
		c-0.14-0.76-0.28-1.51-0.42-2.24c-0.14-0.73-0.28-1.47-0.42-2.24c-0.21-0.9-0.49-1.73-0.83-2.5c-0.49-0.76-0.99-1.21-1.51-1.35
		c-0.52-0.14-0.92-0.21-1.2-0.21c-0.76,0.14-1.47,0.57-2.13,1.3c-0.66,0.73-1.37,1.89-2.13,3.49c-0.49,1.11-0.95,2.39-1.4,3.85
		c-0.45,1.46-1.26,3.09-1.75,4.89l-0.55,0.73v-6.55c3-5.2,4.38-10.02,5.18-14.46c0.8-4.44,1.4-8.18,1.47-11.24
		c0.14-3.54,0-6.67-0.59-9.42c-0.59-2.74-1.33-4.66-2.3-5.77c-0.97-1.11-2.06-1.42-3.31-0.94c-0.83,0.35-1.43,0.88-1.81,1.61
		c-0.38,0.73-0.64,1.44-0.78,2.13c-0.21,0.76-0.38,1.7-0.52,2.81c-0.14,1.11-0.21,2.36-0.21,3.75c-0.37,13.6-0.57,25.06-0.61,34.37
		c-5.72-5.24-11.55-11.03-11.83-13.08c-0.56-4.07-5.36-7.55,5.46-26.29c0,0,14.51-20.08,9.06-30.24c0,0-9.42-25.64-30.35-9.82
		l-0.51-1.41c0,0,3.72-2.05,1.43-6.32c0,0-0.9-5.3-5.12-4c-4.23,1.31-56.28,19.83-56.28,19.83s-6.1,0.93-3.29,7.13
		c0,0,0.59,5.47,5.73,4.27c0,0,2.1,5.86,4.42,6.65c2.32,0.79-19.96,4.16-19.96,4.16s-0.55-3.55-1.19-4.43
		c-0.63-0.89-6.08-0.02-6.08-0.02s-7.82,0.12-6.17,2.11c0,0-80.84-21.9-26.33-98.28c0,0,17.07-1.8,10.33-9.24
		c0,0,2.01-1.86,19.01-6.41c0,0-1.33,7.35-0.17,8.23c1.16,0.88-5.01-0.9-2.64,6.91c2.37,7.81,1.18,3.73,34.56-1.43
		c38.05-5.79,33.03-6.12,32.63-11.56c-0.4-5.44-4.18-4.77-4.18-4.77c-5.69-13.7-7.95-12.92-7.95-12.92c2-7.31-5.35-3.56-5.35-3.56
		c-17.68-8.33-40.58,9-40.58,9c-4.66-0.47-14.88,2.93-14.88,2.93c-2.94,2.99,1.76,5.25,1.76,5.25l-0.77,0.25l-13.67,4.15
		c-0.11-3.53-8.01,2.14-10.55,2.83c-2.55,0.68-0.59,3.73-0.59,3.73c-5.23,3.28-14.18,9.29-22.16,27.44
		c-7.98,18.15-4.16,34.38-4.16,34.38c11.95,48.54,56.51,49.98,56.51,49.98s-3.25,4.3,6.86,2.3c0,0,7.49,0.37,5.77-2.6l14.6-2.81
		c0,0-1.57,1.7-0.97,2.94c0,0-0.64,3.34,5.67,1.3c6.32-2.04,10.53-3.88,10.53-3.88s22.49,5.28,39.6-12.64c0,0,9.11-0.99,3.21-5.74
		c0,0,2.11-6.9,1.27-11.03c0,0,17.71-17.15,27.42,8.23c0,0,6.49,6.97-8.84,28.11c0,0-11.31,15.9-5.36,27.77
		c0,0,1.57,5.16,13.57,16.07c0,0.08,0,0.17,0,0.25c0,9.92,0.5,17.13,0.99,21.64c0.07,0.56,0.44,1.01,0.86,1.35
		c0.42,0.35,0.97,0.52,1.52,0.52c0.55-0.07,1.05-0.28,1.44-0.62c0.38-0.35,0.59-0.8,0.59-1.35c0.14-2.84,0.49-6,1.05-9.47
		c0.34-2.1,0.73-4.2,1.17-6.3c0,0,0.01,0.01,0.01,0.01c0.53-0.6,0.97-2.32,0.57-2.66c0.11-0.48,0.22-0.96,0.33-1.45
		c0.55-2.29,1.11-4.23,1.67-5.83c0.55-1.59,1.04-2.88,1.46-3.85c0.14,0.49,0.24,0.97,0.31,1.46c0.07,0.49,0.14,1.01,0.21,1.56
		c0.55,3.19,1.16,6.35,1.82,9.47c0.66,3.12,1.44,6,2.34,8.64c0.97,2.91,2.04,5.57,3.23,7.3c1.66,2.22,3.47,3.08,5.41,4.08h1.14
		c3.05,0,6.38-2.34,9.99-6.37c2.01-2.36,4.2-5.73,6.55-9.79c1.02-1.75,2.06-3.67,3.13-5.63c0,0.31-0.01,0.6-0.01,0.91
		c0,3.43,0.21,6.35,0.62,8.78c0.83,4.86,2.43,8.14,4.79,9.88c0.9,0.62,1.87,1,2.91,1.14c1.04,0.14,2.04-0.04,3.02-0.52
		c2.91-1.39,5.41-4.79,7.49-10.2c0.35-0.97,0.66-1.94,0.94-2.91c0.28-0.97,0.55-2.01,0.83-3.12c0.55,3.19,1.28,5.9,2.19,8.12
		c2.01,5.06,4.82,8.36,8.43,9.12c0.35,0.14,0.66,0.59,0.94,0.59c0.28,0,0.59,0,0.94,0c3.33,0,6.87-2.26,10.61-6
		c2.36-2.36,4.79-5.77,7.28-9.87c1.3-2.13,2.62-4.48,3.96-6.92c0.03,9.08,0.27,15.72,0.73,19.97c0.07,0.56,0.29,0.98,0.68,1.33
		c0.38,0.35,0.85,0.5,1.4,0.5h0.21c0.55,0,1.02-0.41,1.4-0.82c0.38-0.42,0.54-0.89,0.47-1.45l-0.31-3.22
		c1.04,1.8,2.17,3.09,3.38,3.85c1.21,0.76,2.3,1.28,3.28,1.56c0.35,0.07,0.69,0.12,1.04,0.16c0.35,0.04,0.73,0.05,1.14,0.05
		c1.39,0,3.05-0.42,4.99-1.25c1.94-0.83,4.09-2.43,6.45-4.79c2.36-2.43,4.68-5.69,6.97-9.78c1.96-3.5,3.83-7.29,5.63-11.34
		c1.01,0.93,2.11,1.8,3.32,2.6c1.25,0.83,2.53,1.66,3.85,2.5c0.62,0.35,1.21,0.71,1.77,1.09c0.55,0.38,1.11,0.75,1.66,1.09
		c-1.46,0.49-2.88,0.99-4.27,1.51c-1.39,0.52-2.7,1.09-3.95,1.72c-4.65,2.15-7.77,4.61-9.36,7.39c-0.55,0.97-0.85,1.84-0.88,2.6
		c-0.03,0.76,0.02,1.42,0.16,1.98c0.42,1.32,1.35,2.39,2.81,3.23c1.87,1.11,4.27,1.66,7.18,1.66c1.39,0,2.95-0.17,4.68-0.52
		c0.76-0.14,1.65-0.36,2.65-0.68c1-0.31,2.03-0.76,3.07-1.35c1.04-0.59,2.06-1.3,3.07-2.13c1-0.83,1.85-1.84,2.55-3.02
		c2.36-3.81,2.46-7.32,0.31-10.51c1.8-0.55,3.57-1.14,5.31-1.77c1.73-0.62,3.4-1.28,4.99-1.98c2.22-0.97,4.06-2.08,5.51-3.33
		c0.08-0.07,0.15-0.13,0.22-0.2c-0.1,6.29,0.55,11.49,1.96,15.6c1.11,3.33,2.45,5.65,4.01,6.97c1.56,1.32,3,2.15,4.32,2.5
		c0.35,0.07,0.69,0.12,1.04,0.16c0.35,0.04,0.73,0.05,1.14,0.05c1.46,0,3.14-0.42,5.05-1.25c1.91-0.83,4.04-2.43,6.4-4.79
		c2.18-2.25,4.34-5.24,6.47-8.95c0.13,3.36,0.95,6.38,2.48,9.05c0.97,1.8,2.13,3.21,3.49,4.21c1.35,1.01,2.82,1.58,4.42,1.72
		c3.4,0.35,6.21-1.25,8.43-4.79c0.9-1.18,1.66-2.74,2.29-4.68l1.25,3.12c1.18,2.29,2.48,3.87,3.9,4.73c1.42,0.87,2.69,1.4,3.8,1.61
		c0.28,0.07,0.8,0.1,1.56,0.1c1.39,0,3.09-0.43,5.1-1.3c2.01-0.87,4.23-2.58,6.66-5.15c2.29-2.43,4.59-5.65,6.92-9.68
		c1.97-3.41,3.85-7.11,5.64-11.07c0.99,0.91,2.07,1.76,3.25,2.54c1.25,0.83,2.53,1.66,3.85,2.5c0.62,0.35,1.21,0.71,1.77,1.09
		c0.55,0.38,1.11,0.75,1.66,1.09c-1.46,0.49-2.88,0.99-4.27,1.51c-1.39,0.52-2.71,1.09-3.95,1.72c-4.65,2.15-7.77,4.61-9.36,7.39
		c-0.55,0.97-0.85,1.84-0.88,2.6c-0.03,0.76,0.02,1.42,0.16,1.98c0.42,1.32,1.35,2.39,2.81,3.23c1.87,1.11,4.27,1.66,7.18,1.66
		c1.39,0,2.95-0.17,4.68-0.52c0.76-0.14,1.65-0.36,2.65-0.68c1-0.31,2.03-0.76,3.07-1.35c1.04-0.59,2.06-1.3,3.07-2.13
		c1-0.83,1.85-1.84,2.55-3.02c2.36-3.81,2.46-7.32,0.31-10.51c1.8-0.55,3.57-1.14,5.31-1.77c1.73-0.62,3.4-1.28,4.99-1.98
		c2.22-0.97,4.06-2.08,5.51-3.33c0.15-0.13,0.29-0.26,0.44-0.39c0.21,3.27,0.51,6.21,0.91,8.82c1.52,9.78,4.54,15.23,9.05,16.33
		c0.62,0.21,1.25,0.31,1.87,0.31c3.61,0,7.66-2.71,12.17-8.12c2.01-2.43,4.11-5.53,6.29-9.31c2.18-3.78,4.28-7.72,6.29-11.81
		c0.1-0.21,0.16-0.41,0.2-0.61l2.03-3.6l6.95-11.98c4.09-4.14,8.25-0.67,8.25-0.67c4.68,3.81,1.93,9.57,1.93,9.57l-14.86,26.24
		c-7.68,11.42,3.24,18.1,3.24,18.1c8.27,4.26,13.1-3.52,13.1-3.52l2.1,1.42c2.42,1.99,3.29-0.32,3.29-0.32l2.95-5.14
		c2.8,2.42,3.8-1.07,3.8-1.07l12.6-22.29c3.78-4.92-1.27-6.3-1.27-6.3l9.04-16.12l3.31-2.66
		C975.11,438.92,973.96,436.64,973.96,436.64z M884.3,430.07c0.03-1.04,0.12-2.15,0.26-3.33c0.16-1.46,0.31-2.62,0.47-3.49
		c0.16-0.87,0.31-1.54,0.47-2.03c0.35,0.83,0.69,2.13,1.04,3.9c0.35,1.77,0.45,4.01,0.31,6.71c0,0.21-0.02,0.4-0.05,0.57
		c-0.04,0.17-0.05,0.33-0.05,0.47l-2.6,0.31C884.22,432.15,884.27,431.11,884.3,430.07z M883.94,437.45l2.39-0.31
		c-0.29,1.87-0.65,3.75-1.08,5.62c-0.43,1.87-0.97,3.71-1.62,5.51C883.63,444.94,883.73,441.34,883.94,437.45z M590.86,436.83
		c0.07-3.12,0.17-6.41,0.31-9.88c0-0.97,0.03-1.82,0.1-2.55c0.07-0.73,0.14-1.37,0.21-1.92l0.31,1.35c0.21,0.83,0.4,1.96,0.57,3.38
		c0.17,1.42,0.22,3.14,0.16,5.15c0,1.73-0.12,3.76-0.36,6.09c-0.24,2.32-0.71,4.8-1.4,7.44
		C590.76,442.97,590.79,439.95,590.86,436.83z M690.95,445.88c0-2.91,0.03-5.93,0.1-9.05c0.07-3.12,0.17-6.41,0.31-9.88
		c0-0.97,0.03-1.82,0.1-2.55c0.07-0.73,0.14-1.37,0.21-1.92l0.31,1.35c0.21,0.83,0.4,1.96,0.57,3.38c0.17,1.42,0.22,3.14,0.16,5.15
		c0,1.73-0.12,3.76-0.36,6.09C692.11,440.76,691.64,443.24,690.95,445.88z M692.3,473.14c-0.35-2.01-0.56-4.2-0.62-6.55
		c-0.07-2.36,0-4.89,0.21-7.59c0.07-0.97,0.26-1.32,0.57-1.91c0.31-0.59,0.71-0.67,1.2-0.67h0.42c0.42,0,0.88-0.27,1.4,0.04
		c0.52,0.31,0.99,0.64,1.4,1.4c0.83,1.53,1,3.5,0.52,6.14C696.91,466.62,695.21,469.6,692.3,473.14z M724.24,453.47
		c0-2.5,0.21-4.47,0.62-5.93c0.42-1.46,0.9-2.43,1.46-2.91c0.55-0.55,0.94-0.42,1.14,0.42c0.21,0.9,0.1,2.13-0.31,3.69
		c-0.42,1.56-1.35,3.38-2.81,5.46C724.28,454.06,724.24,453.82,724.24,453.47z M738.81,478.96c-1.53,2.57-4.41,4.3-8.63,5.2
		c-1.73,0.35-3.42,0.47-5.05,0.36c-1.63-0.1-2.93-0.43-3.9-0.99c-0.9-0.55-1.07-1.28-0.52-2.18c0.62-1.11,1.54-2.11,2.76-3.02
		c1.21-0.9,2.6-1.73,4.16-2.5c1.56-0.76,3.26-1.46,5.1-2.08c1.84-0.62,3.73-1.25,5.67-1.87c0.97,1.04,1.49,2.12,1.56,3.23
		C740.02,476.22,739.64,477.51,738.81,478.96z M845.76,447.54c0.42-1.46,0.9-2.43,1.46-2.91c0.55-0.55,0.94-0.42,1.14,0.42
		c0.21,0.9,0.1,2.13-0.31,3.69s-1.35,3.38-2.81,5.46c-0.07-0.14-0.1-0.38-0.1-0.73C845.13,450.98,845.34,449,845.76,447.54z
		 M859.7,478.96c-1.53,2.57-4.41,4.3-8.64,5.2c-1.73,0.35-3.42,0.47-5.05,0.36c-1.63-0.1-2.93-0.43-3.9-0.99
		c-0.9-0.55-1.07-1.28-0.52-2.18c0.62-1.11,1.54-2.11,2.76-3.02c1.21-0.9,2.6-1.73,4.16-2.5c1.56-0.76,3.26-1.46,5.1-2.08
		c1.84-0.62,3.73-1.25,5.67-1.87c0.97,1.04,1.49,2.12,1.56,3.23C860.91,476.22,860.53,477.51,859.7,478.96z"/>
</g>
</svg>
